<svg width="146" height="45" viewBox="0 0 146 45" fill="none" xmlns="http://www.w3.org/2000/svg">
<path d="M0.6875 44.9375V0.3125H21C30.125 0.3125 34.6875 4.30208 34.6875 12.2812C34.6875 17.6771 31.1354 22.1458 24.0312 25.6875L38.1875 45H27.75L14.1562 25.5312V21.75C22.0729 20.3958 26.0312 17.3229 26.0312 12.5312C26.0312 9.23958 24.1771 7.59375 20.4688 7.59375H9.125V44.9375H0.6875ZM42.125 45V0.3125H50.7188L65.875 34.2188L80.7188 0.3125H89V45H81.3438V13.875L69.2188 45H62.1562L49.7812 13.875V45H42.125ZM98.375 45V0.3125H106.969L122.125 34.2188L136.969 0.3125H145.25V45H137.594V13.875L125.469 45H118.406L106.031 13.875V45H98.375Z" fill="#A0A0A0"/>
</svg>
