<svg width="34" height="34" viewBox="0 0 34 34" fill="none" xmlns="http://www.w3.org/2000/svg">
<path d="M29.0209 4.9792C32.2318 8.19009 34 12.4592 34 17.0001C34 21.5409 32.2316 25.81 29.0209 29.0209C25.8099 32.2317 21.5409 34 17 34C12.4592 34 8.19009 32.2317 4.9792 29.0209C1.7683 25.81 0 21.5409 0 17.0001C0 12.4592 1.76817 8.19009 4.97913 4.9792C8.19009 1.7683 12.4592 0 17 0C21.5409 0 25.8099 1.7683 29.0209 4.9792ZM27.5182 27.5183C29.612 25.4245 31.0041 22.8165 31.5782 19.9791C31.1307 20.6377 30.7028 20.8821 30.4378 19.4078C30.1649 17.0042 27.9573 18.5397 26.569 17.6859C25.1079 18.6706 21.8241 15.7713 22.3821 19.0414C23.2432 20.5164 27.0308 17.0674 25.1429 20.1882C23.9385 22.367 20.7388 27.1918 21.1551 29.6929C21.2075 33.3367 17.4318 30.4528 16.1309 29.2441C15.2558 26.8229 15.8327 22.591 13.5445 21.4052C11.0608 21.2974 8.92908 21.0717 7.96652 18.2951C7.38729 16.3086 8.58292 13.3514 10.7117 12.8948C13.8278 10.937 14.941 15.1876 17.8634 15.2667C18.7708 14.3172 21.244 14.0154 21.4491 12.9508C19.5316 12.6124 23.8818 11.3385 21.2655 10.6139C19.8221 10.7836 18.8922 12.1105 19.6595 13.2355C16.8625 13.8877 16.773 9.18791 14.0843 10.6704C14.016 13.0141 9.69415 11.4302 12.589 10.9549C13.5836 10.5204 10.9667 9.2611 12.3804 9.48996C13.0749 9.45222 15.413 8.6329 14.7803 8.0821C16.0821 7.27394 17.1762 10.0175 18.4505 8.01963C19.3704 6.48344 18.0647 6.19982 16.9115 6.97846C16.2614 6.25056 18.0594 4.6783 19.6452 3.99891C20.1737 3.77247 20.6785 3.64912 21.0645 3.68405C21.8633 4.60683 23.3405 4.76665 23.4179 3.57306C21.4396 2.62567 19.2584 2.12517 17 2.12517C13.7587 2.12517 10.6758 3.15524 8.12456 5.05997C8.81019 5.37406 9.19938 5.76517 8.53887 6.2651C8.02568 7.79427 5.94342 9.84696 4.11545 9.55632C3.16627 11.193 2.5412 12.9963 2.27403 14.8863C3.80505 15.3929 4.1581 16.3954 3.82915 16.7308C3.04904 17.411 2.56951 18.3753 2.32254 19.4309C2.82088 22.4802 4.25404 25.2904 6.48191 27.5183C9.29131 30.3277 13.0267 31.875 17 31.875C20.9733 31.875 24.7087 30.3277 27.5182 27.5183Z" fill="#A0A0A0"/>
</svg>
