<svg width="107" height="107" viewBox="0 0 107 107" fill="none" xmlns="http://www.w3.org/2000/svg">
<g clip-path="url(#clip0_156_2)">
<path d="M105.734 99.6215L7.3784 1.26629C5.69064 -0.421679 2.95379 -0.421679 1.26603 1.26629C-0.42193 2.95404 -0.42193 5.69069 1.26603 7.37865L99.6214 105.734C100.465 106.578 101.572 107 102.678 107C103.784 107 104.89 106.578 105.734 105.734C107.422 104.046 107.422 101.309 105.734 99.6215Z" fill="#A0A0A0"/>
<path d="M93.736 89.4138H13.2636C10.7167 89.4138 8.64462 87.3417 8.64462 84.7948V35.6171C8.64462 33.07 10.7169 30.9982 13.2636 30.9982H26.6755C29.0626 30.9982 30.9978 29.063 30.9978 26.676C30.9978 24.289 29.0626 22.3538 26.6755 22.3538H13.2636C5.95019 22.3536 0 28.3035 0 35.6171V84.7948C0 92.1082 5.95019 98.0584 13.2636 98.0584H93.736C96.1232 98.0584 98.0582 96.1234 98.0582 93.7362C98.0582 91.349 96.1232 89.4138 93.736 89.4138Z" fill="#A0A0A0"/>
<path d="M93.7362 22.3536H78.1667L70.5087 10.8661C69.7068 9.66363 68.3574 8.94117 66.9123 8.94117H40.0879C37.7009 8.94117 35.7657 10.8764 35.7657 13.2634C35.7657 15.6504 37.7009 17.5856 40.0879 17.5856H64.5988L72.2568 29.073C73.0587 30.2755 74.4081 30.9978 75.8532 30.9978H93.736C96.2831 30.9978 98.3552 33.0698 98.3552 35.6167V77.373C98.3552 79.7602 100.29 81.6952 102.677 81.6952C105.065 81.6952 107 79.7602 107 77.373V35.6171C107 28.3037 101.05 22.3536 93.7362 22.3536Z" fill="#A0A0A0"/>
<path d="M70.605 64.5967C68.6349 63.2486 65.9455 63.7527 64.5974 65.7227C60.3748 71.8936 51.9187 73.479 45.7478 69.2562C39.5768 65.0339 37.9918 56.5782 42.2141 50.4071C43.1665 49.0151 44.3554 47.8262 45.7478 46.8734C47.7179 45.5253 48.222 42.8354 46.8738 40.8656C45.5257 38.8955 42.8356 38.3914 40.866 39.7396C38.5862 41.2996 36.6395 43.2463 35.0798 45.5257C28.1656 55.6305 30.7612 69.4765 40.866 76.3908C44.6923 79.0089 49.0531 80.263 53.3728 80.263C60.4607 80.263 67.4347 76.8831 71.731 70.6046C73.0792 68.6347 72.5749 65.9449 70.605 64.5967Z" fill="#A0A0A0"/>
</g>
<defs>
<clipPath id="clip0_156_2">
<rect width="107" height="107" fill="white"/>
</clipPath>
</defs>
</svg>
