<svg width="230" height="230" viewBox="0 0 230 230" fill="none" xmlns="http://www.w3.org/2000/svg">
<path d="M1.05918e-05 114.633C-0.00880766 94.1205 5.48878 73.982 15.9189 56.3196C26.349 38.6572 41.3291 24.1184 59.2955 14.221C77.2619 4.32367 97.5557 -0.569366 118.058 0.0527185C138.561 0.674803 158.521 6.7892 175.854 17.7576L190.552 3.0701C192.011 1.61186 193.87 0.619477 195.893 0.218722C197.916 -0.182033 200.013 0.0268812 201.917 0.818988C203.822 1.6111 205.448 2.95074 206.59 4.66814C207.732 6.38553 208.339 8.40338 208.333 10.4659V52.1326C208.333 54.8953 207.236 57.5448 205.282 59.4983C203.329 61.4518 200.679 62.5493 197.917 62.5493H156.25C154.19 62.5488 152.177 61.9377 150.464 60.793C148.751 59.6484 147.417 58.0217 146.628 56.1186C145.84 54.2155 145.634 52.1214 146.036 50.101C146.437 48.0807 147.429 46.2248 148.885 44.768L160.635 33.018C146.377 24.9557 130.255 20.7723 113.875 20.8851C97.4962 20.998 81.4327 25.4031 67.287 33.6611C53.1414 41.9191 41.408 53.7415 33.2571 67.9491C25.1061 82.1566 20.8225 98.2529 20.8333 114.633C20.8333 117.395 19.7359 120.045 17.7824 121.998C15.8289 123.952 13.1794 125.049 10.4167 125.049C7.65401 125.049 5.00449 123.952 3.05098 121.998C1.09748 120.045 1.05918e-05 117.395 1.05918e-05 114.633ZM218.75 104.216C215.987 104.216 213.338 105.313 211.384 107.267C209.431 109.22 208.333 111.87 208.333 114.633C208.306 139.488 198.42 163.318 180.844 180.893C163.269 198.469 139.439 208.355 114.583 208.383C98.4404 208.412 82.5697 204.225 68.5417 196.237L80.2813 184.497C81.7376 183.04 82.7293 181.185 83.1311 179.164C83.5328 177.144 83.3266 175.05 82.5383 173.147C81.7501 171.244 80.4153 169.617 78.7027 168.472C76.9901 167.328 74.9766 166.716 72.9167 166.716H31.25C28.4873 166.716 25.8378 167.813 23.8843 169.767C21.9308 171.72 20.8333 174.37 20.8333 177.133V218.799C20.8328 220.859 21.4431 222.873 22.5871 224.587C23.7311 226.3 25.3575 227.635 27.2604 228.424C28.5243 228.951 29.8807 229.22 31.25 229.216C34.0125 229.215 36.6615 228.118 38.6146 226.164L53.3125 211.508C71.6226 223.148 92.8866 229.294 114.583 229.216C144.962 229.18 174.086 217.096 195.566 195.616C217.047 174.135 229.131 145.011 229.167 114.633C229.167 111.87 228.069 109.22 226.116 107.267C224.162 105.313 221.513 104.216 218.75 104.216Z" fill="#A0A0A0"/>
</svg>
