<svg width="65" height="65" viewBox="0 0 65 65" fill="none" xmlns="http://www.w3.org/2000/svg">
<path d="M49.5214 47.6063L56.4784 54.5633C57.0072 55.0921 57.0072 55.9495 56.4784 56.4784C55.9495 57.0072 55.0921 57.0072 54.5633 56.4784L47.6063 49.5214L43.1059 56.272C42.4936 57.1904 41.0988 57.0298 40.7112 55.9963L32.5862 34.3296C32.178 33.241 33.241 32.178 34.3296 32.5862L55.9963 40.7112C57.0298 41.0988 57.1904 42.4936 56.272 43.1059L49.5214 47.6063ZM46.6679 46.2536L52.57 42.3189L36.1682 36.1682L42.3189 52.57L46.2536 46.6679C46.3056 46.5865 46.3672 46.5094 46.4383 46.4383C46.5094 46.3672 46.5865 46.3056 46.6679 46.2536ZM14.8958 8.125C15.6437 8.125 16.25 8.73128 16.25 9.47917C16.25 10.2271 15.6437 10.8333 14.8958 10.8333C12.6522 10.8333 10.8333 12.6522 10.8333 14.8958C10.8333 15.6437 10.2271 16.25 9.47917 16.25C8.73128 16.25 8.125 15.6437 8.125 14.8958C8.125 11.1564 11.1564 8.125 14.8958 8.125ZM23.0208 10.8333C22.2729 10.8333 21.6667 10.2271 21.6667 9.47917C21.6667 8.73128 22.2729 8.125 23.0208 8.125H28.4375C29.1854 8.125 29.7917 8.73128 29.7917 9.47917C29.7917 10.2271 29.1854 10.8333 28.4375 10.8333H23.0208ZM36.5625 10.8333C35.8146 10.8333 35.2083 10.2271 35.2083 9.47917C35.2083 8.73128 35.8146 8.125 36.5625 8.125H41.9792C42.7271 8.125 43.3333 8.73128 43.3333 9.47917C43.3333 10.2271 42.7271 10.8333 41.9792 10.8333H36.5625ZM23.0208 56.875C22.2729 56.875 21.6667 56.2687 21.6667 55.5208C21.6667 54.7729 22.2729 54.1667 23.0208 54.1667H28.4375C29.1854 54.1667 29.7917 54.7729 29.7917 55.5208C29.7917 56.2687 29.1854 56.875 28.4375 56.875H23.0208ZM8.125 23.0208C8.125 22.2729 8.73128 21.6667 9.47917 21.6667C10.2271 21.6667 10.8333 22.2729 10.8333 23.0208V28.4375C10.8333 29.1854 10.2271 29.7917 9.47917 29.7917C8.73128 29.7917 8.125 29.1854 8.125 28.4375V23.0208ZM8.125 36.5625C8.125 35.8146 8.73128 35.2083 9.47917 35.2083C10.2271 35.2083 10.8333 35.8146 10.8333 36.5625V41.9792C10.8333 42.7271 10.2271 43.3333 9.47917 43.3333C8.73128 43.3333 8.125 42.7271 8.125 41.9792V36.5625ZM8.125 50.1042C8.125 49.3563 8.73128 48.75 9.47917 48.75C10.2271 48.75 10.8333 49.3563 10.8333 50.1042C10.8333 52.3478 12.6522 54.1667 14.8958 54.1667C15.6437 54.1667 16.25 54.7729 16.25 55.5208C16.25 56.2687 15.6437 56.875 14.8958 56.875C11.1564 56.875 8.125 53.8436 8.125 50.1042ZM56.875 28.4375C56.875 29.1854 56.2687 29.7917 55.5208 29.7917C54.7729 29.7917 54.1667 29.1854 54.1667 28.4375V23.0208C54.1667 22.2729 54.7729 21.6667 55.5208 21.6667C56.2687 21.6667 56.875 22.2729 56.875 23.0208V28.4375ZM56.875 14.8958C56.875 15.6437 56.2687 16.25 55.5208 16.25C54.7729 16.25 54.1667 15.6437 54.1667 14.8958C54.1667 12.6522 52.3478 10.8333 50.1042 10.8333C49.3563 10.8333 48.75 10.2271 48.75 9.47917C48.75 8.73128 49.3563 8.125 50.1042 8.125C53.8436 8.125 56.875 11.1564 56.875 14.8958Z" fill="#A0A0A0"/>
</svg>
