<svg width="53" height="53" viewBox="0 0 53 53" fill="none" xmlns="http://www.w3.org/2000/svg">
<path d="M45.6203 17.6875C48.0802 17.6875 50.0568 15.7148 50.0568 13.2812V10.3438C50.0568 7.91025 48.0802 5.9375 45.6419 5.9375H7.35811C4.91984 5.9375 2.94324 7.91025 2.94324 10.3438V13.2812C2.94324 15.7148 4.91984 17.6875 7.35811 17.6875H45.6203V17.6875ZM0 39.7188C0 35.6629 3.29434 32.375 7.35811 32.375H45.6419C49.7057 32.375 53 35.6629 53 39.7188V42.6562C53 46.7121 49.7057 50 45.6419 50H7.35811C3.29434 50 0 46.7121 0 42.6562V39.7188ZM2.94253 19.1562C1.15573 17.8164 0 15.6835 0 13.2812V10.3438C0 6.28791 3.29434 3 7.35811 3H45.6419C49.7057 3 53 6.28791 53 10.3438V13.2812C53 15.6835 51.8443 17.8164 50.0575 19.1562C51.8443 20.4961 53 22.629 53 25.0312V27.9688C53 32.0246 49.7057 35.3125 45.6419 35.3125C44.8075 35.3125 44.1486 34.6549 44.1486 33.8438C44.1486 33.0326 44.8075 32.375 45.6203 32.375C48.0802 32.375 50.0568 30.4023 50.0568 27.9688V25.0312C50.0568 22.5977 48.0802 20.625 45.6419 20.625H7.35811C4.91984 20.625 2.94324 22.5977 2.94324 25.0312V27.9688C2.94324 30.4023 4.91984 32.375 7.35811 32.375C8.17086 32.375 8.82973 33.0326 8.82973 33.8438C8.82973 34.6549 8.17086 35.3125 7.35811 35.3125C3.29434 35.3125 0 32.0246 0 27.9688V25.0312C0 22.629 1.15573 20.4961 2.94253 19.1562ZM2.94324 39.7188V42.6562C2.94324 45.0898 4.91984 47.0625 7.35811 47.0625H45.6419C48.0802 47.0625 50.0568 45.0898 50.0568 42.6562V39.7188C50.0568 37.2852 48.0802 35.3125 45.6419 35.3125H7.35811C4.91984 35.3125 2.94324 37.2852 2.94324 39.7188ZM7.35811 14.75C6.54535 14.75 5.88649 14.0924 5.88649 13.2812C5.88649 12.4701 6.54535 11.8125 7.35811 11.8125H13.2446C14.0573 11.8125 14.7162 12.4701 14.7162 13.2812C14.7162 14.0924 14.0573 14.75 13.2446 14.75H7.35811ZM7.35811 29.4375C6.54535 29.4375 5.88649 28.7799 5.88649 27.9688C5.88649 27.1576 6.54535 26.5 7.35811 26.5H13.2446C14.0573 26.5 14.7162 27.1576 14.7162 27.9688C14.7162 28.7799 14.0573 29.4375 13.2446 29.4375H7.35811ZM7.35811 44.125C6.54535 44.125 5.88649 43.4674 5.88649 42.6562C5.88649 41.8451 6.54535 41.1875 7.35811 41.1875H13.2446C14.0573 41.1875 14.7162 41.8451 14.7162 42.6562C14.7162 43.4674 14.0573 44.125 13.2446 44.125H7.35811Z" fill="#6BC6F7"/>
</svg>
